<svg xmlns="http://www.w3.org/2000/svg" viewBox="0 0 200 200">
  <circle cx="100" cy="100" r="98" fill="#000"/>
  <circle cx="100" cy="100" r="90" fill="#1C69D4"/>
  <path d="M100 10 A90 90 0 0 1 190 100 L100 100 Z" fill="white"/>
  <path d="M100 190 A90 90 0 0 1 10 100 L100 100 Z" fill="white"/>
  <circle cx="100" cy="100" r="90" fill="none" stroke="#000" stroke-width="6"/>
  <circle cx="100" cy="100" r="60" fill="none" stroke="white" stroke-width="3"/>
  <circle cx="100" cy="100" r="26" fill="#1C69D4"/>
  <path d="M100 40 A60 60 0 0 1 160 100 L100 100 Z" fill="white"/>
  <path d="M100 160 A60 60 0 0 1 40 100 L100 100 Z" fill="white"/>
  <circle cx="100" cy="100" r="26" fill="#1C69D4"/>
  <circle cx="100" cy="100" r="98" fill="none" stroke="#000" stroke-width="4"/>
</svg>
